<svg width="109" height="33" viewBox="0 0 109 33" fill="none" xmlns="http://www.w3.org/2000/svg">
<path d="M42.6432 26V25.944C43.9498 24.5067 44.6032 23.2 44.6032 22.024C44.6032 21.7067 44.5565 21.3893 44.4632 21.072C44.3885 20.7547 44.2392 20.372 44.0152 19.924C43.8098 19.476 43.5205 18.8973 43.1472 18.188C42.5498 17.0493 42.2512 15.9667 42.2512 14.94C42.2512 14.2493 42.4098 13.512 42.7272 12.728C43.0445 11.9253 43.5112 11.1787 44.1272 10.488H49.3632V10.544C48.6725 11.3093 48.1778 12 47.8792 12.616C47.5805 13.2133 47.4312 13.8293 47.4312 14.464C47.4312 14.9307 47.5152 15.388 47.6832 15.836C47.8512 16.284 48.1218 16.8627 48.4952 17.572C48.9992 18.4867 49.3445 19.2333 49.5312 19.812C49.7365 20.372 49.8392 20.9507 49.8392 21.548C49.8392 22.3507 49.7085 23.1067 49.4472 23.816C49.1858 24.5067 48.7565 25.2347 48.1592 26H42.6432ZM51.9284 13.736V11.496H56.7724V13.736H51.9284ZM51.9284 26V14.8H56.7724V26H51.9284ZM59.2176 26V10.488H69.6336C70.119 10.8427 70.511 11.3467 70.8096 12C71.127 12.6347 71.2856 13.288 71.2856 13.96C71.2856 14.7067 71.099 15.444 70.7256 16.172C70.371 16.8813 69.839 17.404 69.1296 17.74V17.796C69.9136 18.132 70.5016 18.6733 70.8936 19.42C71.2856 20.1667 71.519 21.0627 71.5936 22.108L71.8456 26H66.9176L66.6656 22.108C66.5536 20.1667 65.6576 19.1307 63.9776 19V26H59.2176ZM63.9776 17.656C64.7243 17.4507 65.3216 17.0587 65.7696 16.48C66.2176 15.9013 66.4416 15.2387 66.4416 14.492C66.4416 13.7267 66.2083 13.0733 65.7416 12.532C65.2936 11.972 64.7056 11.6453 63.9776 11.552V17.656ZM74.8351 26C74.2191 25.496 73.7897 24.8893 73.5471 24.18C73.3231 23.452 73.2111 22.7613 73.2111 22.108C73.2111 21.3053 73.3511 20.5307 73.6311 19.784C73.9111 19.0373 74.3124 18.4867 74.8351 18.132H79.8471C79.6977 17.4787 79.4924 16.8813 79.2311 16.34C78.9697 15.7987 78.6617 15.304 78.3071 14.856V14.8H83.8791C84.1404 15.2107 84.3644 15.8453 84.5511 16.704C84.7564 17.544 84.8591 18.4027 84.8591 19.28V26H74.8351ZM80.0711 25.076V20.26C80.0711 20.0547 80.0617 19.868 80.0431 19.7C80.0431 19.5133 80.0337 19.336 80.0151 19.168C79.4924 19.4107 79.0257 19.7747 78.6151 20.26C78.2044 20.7267 77.9991 21.3147 77.9991 22.024C77.9991 22.64 78.1671 23.2373 78.5031 23.816C78.8577 24.3947 79.3804 24.8147 80.0711 25.076ZM88.0526 26C87.7913 25.5893 87.5579 24.9547 87.3526 24.096C87.1659 23.2373 87.0726 22.3787 87.0726 21.52V12H91.8606V14.8H93.5406V18.16H91.8606V20.54C91.8606 21.772 92.0286 22.8173 92.3646 23.676C92.7193 24.516 93.1393 25.272 93.6246 25.944V26H88.0526ZM95.6216 26V9.928H100.41V14.8H105.87C106.374 15.3787 106.766 16.172 107.046 17.18C107.344 18.1693 107.494 19.2427 107.494 20.4V26H102.706V20.708C102.706 19.4387 102.5 18.412 102.09 17.628C101.698 16.844 101.138 16.2187 100.41 15.752V26H95.6216Z" fill="#434377"/>
<g clip-path="url(#clip0_1_322)">
<path d="M23.0037 0.430375C18.1087 0.363 12.2829 2.74038 7.48275 7.33287C6.2865 8.47412 5.27312 9.70475 4.34775 10.9656H8.5305L7.55837 13.7362H2.563C2.08725 14.6107 1.639 15.477 1.29525 16.357H7.21737L6.27275 19.129H0.449622C-0.545878 23.3626 0.0893724 27.3144 2.59325 29.8224C7.46075 34.6871 17.732 32.9739 25.4059 25.6314C26.7492 24.3526 27.8575 22.9762 28.8585 21.5614H23.4877L24.3072 18.7935H30.5882C31.0475 17.9135 31.4724 17.0417 31.8024 16.1617H24.9384L25.7001 13.398H32.6452C33.5019 9.38712 32.8267 5.6705 30.393 3.23675C28.545 1.38875 25.9421 0.468875 23.0037 0.430375ZM21.5682 6.91212H28.3992L27.5275 10.9519H23.3997C22.9556 10.9519 22.7673 11.0261 22.5857 11.2282C22.517 11.308 22.4895 11.3864 22.462 11.5445L20.2084 20.097C19.679 23.0931 15.994 26.0906 11.1952 26.0906H4.521L5.67875 21.6934H9.96737C10.1694 21.6989 10.3701 21.6588 10.5545 21.5762C10.739 21.4936 10.9025 21.3706 11.033 21.2162C11.1375 21.0925 11.2764 20.8972 11.2942 20.6979L13.0749 13.2275C13.5987 10.2272 16.7681 6.91212 21.5682 6.91212Z" fill="#434377"/>
</g>
<defs>
<clipPath id="clip0_1_322">
<rect width="33" height="33" fill="white"/>
</clipPath>
</defs>
</svg>
